<?xml version="1.0" encoding="UTF-8"?>
<svg version="1.1" xmlns="http://www.w3.org/2000/svg" width="944" height="168">
<path d="M0 0 C0.804375 0.7425 1.60875 1.485 2.4375 2.25 C2.7675 -0.06 3.0975 -2.37 3.4375 -4.75 C10.3675 -4.75 17.2975 -4.75 24.4375 -4.75 C24.48286742 5.21268491 24.51948285 15.17530007 24.54112434 25.13806534 C24.55151646 29.76526 24.56559112 34.39237971 24.58837891 39.01953125 C24.61027163 43.49345374 24.62210292 47.96730458 24.62725449 52.44127655 C24.63092098 54.13951493 24.6380798 55.83774985 24.64896011 57.53595734 C24.74241518 72.74126398 24.72628199 87.47091988 14 99.4375 C4.46585255 108.32282078 -7.75186914 112.25 -20.5625 112.25 C-20.5625 106.31 -20.5625 100.37 -20.5625 94.25 C-19.0775 94.023125 -17.5925 93.79625 -16.0625 93.5625 C-9.73709194 92.24731615 -4.78665976 90.39412852 -0.95703125 84.98046875 C2.01775691 79.55585505 3.00610038 75.39088412 2.4375 69.25 C1.90382813 69.72050781 1.37015625 70.19101563 0.8203125 70.67578125 C-7.07843621 77.27629272 -14.45466497 79.86977109 -24.76953125 79.53515625 C-36.08814994 78.37954903 -45.87659456 73.900883 -53.70703125 65.6171875 C-61.9021996 55.16187798 -64.6224273 43.2789525 -63.5625 30.25 C-61.47328163 17.94343633 -56.9630407 8.64033334 -47.5625 0.25 C-33.16672025 -9.28181057 -13.95072393 -11.44674784 0 0 Z M-37.09375 18.52734375 C-41.99503318 24.27592323 -43.83518162 30.73989365 -43.5625 38.25 C-42.20268208 46.99729029 -38.36764717 52.4147923 -31.375 57.625 C-25.33123383 60.7069205 -18.27622314 61.04058104 -11.8125 59.1875 C-5.2867797 56.59589015 -0.0871908 52.20331999 2.7734375 45.7109375 C4.7619051 38.3419105 4.52158534 30.63532555 1.3125 23.6875 C-2.55807301 17.09238957 -7.0708644 14.06815694 -14.31640625 11.73046875 C-22.53737674 9.97189593 -31.09170256 12.76594444 -37.09375 18.52734375 Z " fill="#FFF0D6" transform="translate(800.5625,55.75)"/>
<path d="M0 0 C2.850577 1.81480834 5.46701848 3.76501631 8 6 C8.33 3.36 8.66 0.72 9 -2 C14.28 -2 19.56 -2 25 -2 C25.04540501 7.55426266 25.08200417 17.10845221 25.10362434 26.66279888 C25.1140073 31.10051713 25.12806469 35.53815695 25.15087891 39.97583008 C25.17280499 44.26820953 25.18460975 48.56051414 25.18975449 52.85294533 C25.19341512 54.48058053 25.20056198 56.10821221 25.21146011 57.73581505 C25.3082536 72.80784374 25.39800509 88.3334626 14.95703125 100.3515625 C9.90741316 105.1241219 4.36922527 108.29856997 -2 111 C-2.969375 111.4125 -3.93875 111.825 -4.9375 112.25 C-9.59055464 113.38952359 -14.22428672 113.65055756 -19 114 C-19 109.05 -19 104.1 -19 99 C-17.370625 98.79375 -15.74125 98.5875 -14.0625 98.375 C-7.18718401 97.10081016 -1.80471049 94.48911353 2.6328125 88.96875 C5.82770489 84.0760005 7.14872419 80.11324518 7.0625 74.25 C7.05347656 73.45078125 7.04445313 72.6515625 7.03515625 71.828125 C7.02355469 71.22484375 7.01195313 70.6215625 7 70 C6.59910156 70.38671875 6.19820313 70.7734375 5.78515625 71.171875 C-2.84626659 79.07911951 -11.68397192 81.38511369 -23.19140625 81.27734375 C-35.15866663 80.40588171 -43.73432967 75.74945542 -51.75 67.125 C-61.06885114 55.98058805 -62.22518865 43.01003226 -61 29 C-58.73734711 17.91814323 -52.0934381 8.57604563 -43 2 C-30.05168039 -5.92249001 -13.63551196 -6.65638897 0 0 Z M-39 20 C-44.19062356 27.89201075 -45.90087774 34.55329595 -45 44 C-43.1494551 51.03005917 -40.03968708 57.33583361 -33.8203125 61.4375 C-26.35824706 65.74347874 -19.75171818 67.3391097 -11.21484375 65.3515625 C-3.76815755 62.95469239 1.19110097 59.62136905 5.27734375 52.8984375 C8.85320957 45.69580386 9.93971708 38.54589995 7.8125 30.75 C5.31149135 23.57221733 1.32222389 18.21896437 -5 14 C-16.59002382 8.43428712 -30.10746792 10.47228706 -39 20 Z " fill="#FFF0D6" transform="translate(61,52)"/>
<path d="M0 0 C9.05939983 7.16048633 13.93837636 17.59813179 16.1640625 28.7265625 C16.1640625 33.0165625 16.1640625 37.3065625 16.1640625 41.7265625 C-5.2859375 41.7265625 -26.7359375 41.7265625 -48.8359375 41.7265625 C-46.67954086 49.68264483 -46.67954086 49.68264483 -41.9609375 54.6640625 C-41.30351563 55.20933594 -40.64609375 55.75460938 -39.96875 56.31640625 C-33.63078946 60.50688932 -27.22352816 60.35845705 -19.8359375 59.7265625 C-16.31345744 58.47161788 -16.31345744 58.47161788 -13.8359375 56.7265625 C-12.8459375 56.3965625 -11.8559375 56.0665625 -10.8359375 55.7265625 C-9.62711654 53.72639784 -9.62711654 53.72639784 -8.8359375 51.7265625 C-5.31355703 53.29023607 -2.56469756 55.42152139 0.4140625 57.8515625 C1.30609375 58.57601562 2.198125 59.30046875 3.1171875 60.046875 C3.79265625 60.60117188 4.468125 61.15546875 5.1640625 61.7265625 C4.41837805 66.27026642 2.10860607 68.11086384 -1.31640625 70.98046875 C-11.28674592 77.89014601 -22.89681909 80.02744889 -34.76171875 78.30078125 C-46.5898426 75.80015325 -55.77842651 69.51083909 -62.8359375 59.7265625 C-69.59910186 48.92620308 -71.40689615 37.23063891 -68.7109375 24.8515625 C-65.47221548 12.9712037 -59.41361211 4.19409276 -49.1484375 -2.5234375 C-33.54836837 -11.36347668 -14.66732752 -10.17350803 0 0 Z M-46.3984375 18.7890625 C-48.10259025 21.95542318 -48.10259025 21.95542318 -48.8359375 26.7265625 C-34.3159375 26.7265625 -19.7959375 26.7265625 -4.8359375 26.7265625 C-6.02115791 19.61524001 -7.99809859 16.76299653 -13.51953125 12.39453125 C-24.74634389 5.56186894 -38.34804702 9.16786412 -46.3984375 18.7890625 Z " fill="#FFF0D6" transform="translate(672.8359375,55.2734375)"/>
<path d="M0 0 C7.26 0 14.52 0 22 0 C22.91473138 2.43928368 23.82945408 4.87857061 24.74414062 7.31787109 C25.54608155 9.45627086 26.34816713 11.59461638 27.15039062 13.73291016 C29.2924355 19.44308049 31.43200209 25.15415634 33.56640625 30.8671875 C33.9744751 31.95837891 34.38254395 33.04957031 34.80297852 34.17382812 C35.592106 36.28417681 36.38037486 38.39484679 37.16772461 40.50585938 C37.52487549 41.46041016 37.88202637 42.41496094 38.25 43.3984375 C38.56453125 44.24067871 38.8790625 45.08291992 39.203125 45.95068359 C39.97117513 48.01956501 39.97117513 48.01956501 41 50 C46.94 33.5 52.88 17 59 0 C66.26 0 73.52 0 81 0 C80.30356757 3.48216216 79.66575246 6.16273953 78.41210938 9.38330078 C78.08604202 10.22667496 77.75997467 11.07004913 77.42402649 11.9389801 C77.06753525 12.84856979 76.71104401 13.75815948 76.34375 14.6953125 C75.96933273 15.66013046 75.59491547 16.62494843 75.20915222 17.6190033 C73.97727675 20.78944539 72.7391361 23.95738917 71.5 27.125 C70.64289846 29.32084837 69.78588442 31.5167309 68.92895508 33.71264648 C67.60868484 37.09417805 66.28749562 40.47534033 64.96406555 43.8556366 C62.40467704 50.39354966 59.86218372 56.93757653 57.33920288 63.48962402 C55.82375273 67.42010443 54.29804178 71.34654819 52.77001953 75.27215576 C52.0540274 77.11772478 51.34220436 78.96491717 50.63476562 80.81378174 C49.64708367 83.39227834 48.64378818 85.96418113 47.63671875 88.53515625 C47.21582222 89.65083229 47.21582222 89.65083229 46.78642273 90.78904724 C42.92880817 100.51276227 36.24473253 108.64649332 26.75 113.25 C19.66191108 116.15793392 12.61537514 117 5 117 C5 111.06 5 105.12 5 99 C6.670625 98.773125 8.34125 98.54625 10.0625 98.3125 C15.43080726 97.28701566 19.3531775 96.19882292 23 92 C26.51351008 86.61108693 29.63629343 81.80485625 28.54537964 75.21334839 C27.30421479 70.17625127 25.22559057 65.40008187 23.30078125 60.59375 C22.82811325 59.39625122 22.35544525 58.19875244 21.86845398 56.96496582 C20.61326819 53.7853447 19.34896741 50.60942634 18.08270264 47.4342041 C16.81579496 44.25262836 15.55774094 41.06755804 14.29882812 37.8828125 C9.16390223 24.89919307 9.16390223 24.89919307 3.95458984 11.9453125 C3.66666061 11.23379028 3.37873138 10.52226807 3.08207703 9.78918457 C2.36296336 8.01631179 1.63913227 6.24535435 0.91479492 4.47460938 C0 2 0 2 0 0 Z " fill="#FFF0D6" transform="translate(833,51)"/>
<path d="M0 0 C7.96239233 6.69231748 10.5076552 15.16293602 11.625 25.3125 C12.10167866 34.09367149 11.90917328 42.89813596 11.8125 51.6875 C11.79742485 54.08072074 11.78374146 56.47395067 11.77148438 58.8671875 C11.73870592 64.68252188 11.68707944 70.49740762 11.625 76.3125 C4.695 76.3125 -2.235 76.3125 -9.375 76.3125 C-9.3843457 74.83974609 -9.39369141 73.36699219 -9.40332031 71.84960938 C-9.44332394 66.36265301 -9.50911257 60.8762512 -9.58251953 55.38964844 C-9.61066889 53.01927844 -9.63191329 50.64881562 -9.64599609 48.27832031 C-9.66750851 44.86214894 -9.71420394 41.44708645 -9.765625 38.03125 C-9.76685364 36.97885132 -9.76808228 35.92645264 -9.76934814 34.84216309 C-9.89941312 28.243259 -10.88314355 23.95081637 -14.375 18.3125 C-18.3419162 14.79894565 -23.20075658 14.16589644 -28.375 14.3125 C-33.32996656 15.36804745 -37.24538557 17.21992729 -40.375 21.3125 C-42.01306907 24.81156584 -42.63534759 27.61871609 -42.69384766 31.4699707 C-42.71371735 32.47063065 -42.73358704 33.47129059 -42.75405884 34.50227356 C-42.76561005 35.5701561 -42.77716125 36.63803864 -42.7890625 37.73828125 C-42.80842865 38.84100876 -42.8277948 39.94373627 -42.8477478 41.07987976 C-42.90742923 44.59484166 -42.95388375 48.10983651 -43 51.625 C-43.03819026 54.01108183 -43.0772426 56.39715003 -43.1171875 58.78320312 C-43.2131216 64.62619111 -43.29719534 70.46924362 -43.375 76.3125 C-50.305 76.3125 -57.235 76.3125 -64.375 76.3125 C-64.375 50.2425 -64.375 24.1725 -64.375 -2.6875 C-58.105 -2.6875 -51.835 -2.6875 -45.375 -2.6875 C-45.045 -0.3775 -44.715 1.9325 -44.375 4.3125 C-43.92511719 3.84199219 -43.47523438 3.37148438 -43.01171875 2.88671875 C-31.67125904 -8.090119 -13.03515001 -8.99229333 0 0 Z " fill="#FFF0D6" transform="translate(584.375,53.6875)"/>
<path d="M0 0 C10.31650817 8.83604249 17.32220916 19.43204089 19.3984375 33.02734375 C19.49073874 35.6226373 19.53842979 38.18367821 19.5234375 40.77734375 C19.52730469 41.46183594 19.53117187 42.14632812 19.53515625 42.8515625 C19.52515811 47.90062314 19.52515811 47.90062314 18.3984375 49.02734375 C15.293365 49.12268028 12.21057292 49.15285501 9.10522461 49.14086914 C8.12972153 49.14101517 7.15421844 49.14116119 6.14915466 49.14131165 C2.90800797 49.14061208 -0.33308204 49.13281766 -3.57421875 49.125 C-5.81481393 49.12313597 -8.05540952 49.121712 -10.29600525 49.12071228 C-16.2061576 49.11688588 -22.11628555 49.10705455 -28.02642822 49.0960083 C-34.05212067 49.08579681 -40.07781703 49.08121522 -46.10351562 49.07617188 C-57.93620866 49.06543239 -69.76888356 49.04835451 -81.6015625 49.02734375 C-81.64577121 46.33835827 -81.67783276 43.6501141 -81.703125 40.9609375 C-81.71674072 40.20824585 -81.73035645 39.4555542 -81.74438477 38.68005371 C-81.83757812 25.42867604 -76.42736461 13.93808181 -67.4765625 4.33984375 C-49.01569798 -13.13149369 -20.51793195 -15.55789134 0 0 Z M-55.42578125 19.0546875 C-60.05636051 24.94701412 -60.05636051 24.94701412 -61.6015625 32.02734375 C-41.4715625 32.02734375 -21.3415625 32.02734375 -0.6015625 32.02734375 C-2.25945586 23.73787696 -6.65798182 18.015073 -13.5859375 13.2421875 C-27.42808027 4.89934564 -44.41914345 6.82247118 -55.42578125 19.0546875 Z " fill="#FFF0D6" transform="translate(487.6015625,45.97265625)"/>
<path d="M0 0 C9.12573329 6.75304264 15.62620925 15.301712 18.40625 26.421875 C18.40625 31.701875 18.40625 36.981875 18.40625 42.421875 C-3.70375 42.751875 -25.81375 43.081875 -48.59375 43.421875 C-45.67956917 52.16441749 -43.53463308 57.60622066 -35.46875 61.796875 C-29.02145069 64.77454336 -22.01644428 65.70543296 -15.1171875 63.703125 C-9.0954024 61.20579606 -5.23065139 57.87722708 -1.59375 52.421875 C1.90469386 53.05576735 4.24711876 54.47365194 7.15625 56.484375 C7.95546875 57.03222656 8.7546875 57.58007812 9.578125 58.14453125 C10.18140625 58.56605469 10.7846875 58.98757812 11.40625 59.421875 C10.00723941 66.08858871 5.66177882 69.46015907 0.21875 73.109375 C-10.67544327 79.66619971 -21.55174939 81.10039003 -34.12890625 78.765625 C-45.60889286 75.6505877 -54.54641613 68.51338211 -60.84375 58.41796875 C-66.39258807 47.99349723 -67.52023455 35.53889998 -64.46875 24.109375 C-59.9383906 11.36509294 -52.51684045 3.52561554 -40.56835938 -2.3581543 C-28.13101045 -8.24871638 -11.75611313 -7.15281582 0 0 Z M-41.40625 14.671875 C-46.88620002 21.31255136 -46.88620002 21.31255136 -48.59375 29.421875 C-31.76375 29.421875 -14.93375 29.421875 2.40625 29.421875 C1.19260403 22.13999919 -1.10319988 18.21793851 -6.8515625 13.61328125 C-17.77375103 6.09751785 -30.819115 6.202167 -41.40625 14.671875 Z " fill="#FFF0D6" transform="translate(200.59375,53.578125)"/>
<path d="M0 0 C9.05081508 6.76959491 14.18727119 15.78791846 16.38671875 26.78515625 C16.38671875 31.40515625 16.38671875 36.02515625 16.38671875 40.78515625 C-6.05328125 40.78515625 -28.49328125 40.78515625 -51.61328125 40.78515625 C-47.6695275 51.63047907 -45.96674723 55.24943149 -36.61328125 60.78515625 C-30.29743854 63.65599384 -23.08851473 63.82745512 -16.48828125 61.72265625 C-11.51845439 59.61731208 -6.06098377 55.68056129 -3.61328125 50.78515625 C1.47610686 52.37559004 5.26128518 55.52985135 9.38671875 58.78515625 C4.25534323 68.74606167 -4.1034609 73.50671913 -14.36328125 77.09765625 C-26.18087383 79.54677503 -38.11260544 78.00732655 -48.625 72.08984375 C-58.28782027 65.57765656 -65.29471895 56.33705194 -67.61328125 44.78515625 C-69.13840844 31.19284919 -67.49229679 19.30267583 -59.42578125 7.91015625 C-44.33863652 -9.81073573 -19.20456427 -12.27042019 0 0 Z M-46.61328125 15.78515625 C-49.39104683 19.65800249 -50.66539203 23.04571016 -51.61328125 27.78515625 C-34.45328125 27.78515625 -17.29328125 27.78515625 0.38671875 27.78515625 C-2.54171578 18.99985267 -4.67749614 13.57632637 -12.80078125 9.41015625 C-25.00547686 3.87350933 -37.24489382 6.41676882 -46.61328125 15.78515625 Z " fill="#FFF0D6" transform="translate(295.61328125,55.21484375)"/>
<path d="M0 0 C6.79620583 5.66021212 10.50093364 11.49516264 12.3125 20.11328125 C12.39860854 22.00721028 12.43021982 23.90392382 12.42602539 25.79980469 C12.42591209 27.51112579 12.42591209 27.51112579 12.42579651 29.25701904 C12.42063522 30.48317932 12.41547394 31.7093396 12.41015625 32.97265625 C12.4087413 34.23217102 12.40732635 35.49168579 12.40586853 36.78936768 C12.40122073 40.12993244 12.39224281 43.47042846 12.38116455 46.81097412 C12.37091598 50.22293505 12.36636354 53.6349031 12.36132812 57.046875 C12.35029963 63.7356985 12.33303524 70.42448046 12.3125 77.11328125 C7.0325 77.11328125 1.7525 77.11328125 -3.6875 77.11328125 C-3.70208252 75.64052734 -3.71666504 74.16777344 -3.73168945 72.65039062 C-3.78985272 67.16349541 -3.867085 61.67700284 -3.94995117 56.19042969 C-3.98311573 53.82005367 -4.01117378 51.4496003 -4.03393555 49.07910156 C-4.06763688 45.66307749 -4.11996209 42.24775695 -4.17578125 38.83203125 C-4.18217117 37.77963257 -4.1885611 36.72723389 -4.19514465 35.64294434 C-4.34197681 28.2217759 -5.50674792 22.74786805 -9.375 16.30078125 C-13.56530354 12.33698061 -17.96495366 11.27733328 -23.625 10.73828125 C-28.82455586 10.98392956 -34.27817822 12.02559223 -38.296875 15.5078125 C-44.93197129 23.21623319 -44.84102635 31.26273703 -45.00390625 40.98046875 C-45.02468735 42.01519318 -45.04546844 43.0499176 -45.06687927 44.11599731 C-45.1320282 47.40669399 -45.19109809 50.69746742 -45.25 53.98828125 C-45.2932182 56.22526821 -45.33683353 58.46224754 -45.38085938 60.69921875 C-45.48767394 66.17049515 -45.58903827 71.64184842 -45.6875 77.11328125 C-50.9675 77.11328125 -56.2475 77.11328125 -61.6875 77.11328125 C-61.6875 50.71328125 -61.6875 24.31328125 -61.6875 -2.88671875 C-56.7375 -2.88671875 -51.7875 -2.88671875 -46.6875 -2.88671875 C-46.3575 -0.57671875 -46.0275 1.73328125 -45.6875 4.11328125 C-45.21441406 3.71496094 -44.74132812 3.31664062 -44.25390625 2.90625 C-32.31202229 -6.66122428 -13.06397751 -9.17136793 0 0 Z " fill="#FFF0D6" transform="translate(379.6875,52.88671875)"/>
<path d="M0 0 C0 6.93 0 13.86 0 21 C-2.536875 21.37125 -2.536875 21.37125 -5.125 21.75 C-9.93197618 22.64590173 -13.32601187 23.60156098 -17 27 C-20.32033924 33.02132765 -20.46894267 38.39682638 -20.51171875 45.18359375 C-20.52966995 46.23909927 -20.54762115 47.2946048 -20.56611633 48.38209534 C-20.62004359 51.73385698 -20.65405917 55.08547762 -20.6875 58.4375 C-20.72068853 60.7181185 -20.7551796 62.99871844 -20.79101562 65.27929688 C-20.87576025 70.85276259 -20.9426556 76.42618775 -21 82 C-27.6 82 -34.2 82 -41 82 C-41 55.93 -41 29.86 -41 3 C-34.73 3 -28.46 3 -22 3 C-21.67 4.98 -21.34 6.96 -21 9 C-20.54109375 8.59007812 -20.0821875 8.18015625 -19.609375 7.7578125 C-18.99578125 7.21898437 -18.3821875 6.68015625 -17.75 6.125 C-17.14671875 5.59132813 -16.5434375 5.05765625 -15.921875 4.5078125 C-11.0146286 0.65781837 -6.15554412 0 0 0 Z " fill="#FFF0D6" transform="translate(736,48)"/>
<path d="M0 0 C0 5.28 0 10.56 0 16 C-1.876875 16.5775 -3.75375 17.155 -5.6875 17.75 C-13.02980429 20.16244897 -13.02980429 20.16244897 -18.04888916 25.78684998 C-21.12988027 32.11735644 -21.60101672 37.62223019 -21.609375 44.59765625 C-21.62591125 45.67252792 -21.64244751 46.7473996 -21.65948486 47.85484314 C-21.70771834 51.25745499 -21.72928158 54.65962069 -21.75 58.0625 C-21.7781802 60.38218361 -21.80811046 62.70184665 -21.83984375 65.02148438 C-21.91347108 70.68095282 -21.9631964 76.34017716 -22 82 C-27.61 82 -33.22 82 -39 82 C-39 55.6 -39 29.2 -39 2 C-33.72 2 -28.44 2 -23 2 C-22.67 3.98 -22.34 5.96 -22 8 C-21.195625 7.236875 -20.39125 6.47375 -19.5625 5.6875 C-13.5497001 0.69574159 -7.68818941 0 0 0 Z " fill="#FFF0D6" transform="translate(137,48)"/>
<path d="M0 0 C25.41 0 50.82 0 77 0 C68.03526974 10.45885197 58.59786153 16.08148983 45 18 C31.14289537 18.86295741 18.19633878 16.58855216 7.15234375 7.7109375 C4.69470395 5.53328198 2.28758662 3.3557275 0 1 C0 0.67 0 0.34 0 0 Z " fill="#FFF0D6" transform="translate(418,119)"/>
<path d="M0 0 C4.12400627 3.75951656 6.45850599 8.69774198 9.1875 13.5 C9.74630859 14.46292969 10.30511719 15.42585938 10.88085938 16.41796875 C11.40873047 17.34222656 11.93660156 18.26648438 12.48046875 19.21875 C12.96410889 20.06373047 13.44774902 20.90871094 13.94604492 21.77929688 C15 24 15 24 15 27 C13.21046815 27.83790789 11.41830305 28.67019396 9.625 29.5 C8.62726563 29.9640625 7.62953125 30.428125 6.6015625 30.90625 C4 32 4 32 2 32 C-0.20755448 28.26146437 -2.38744655 24.50752268 -4.5625 20.75 C-5.19091797 19.68652344 -5.81933594 18.62304688 -6.46679688 17.52734375 C-7.35141602 15.99013672 -7.35141602 15.99013672 -8.25390625 14.421875 C-8.80377197 13.47924805 -9.3536377 12.53662109 -9.92016602 11.56542969 C-11 9 -11 9 -10.81445312 6.75390625 C-9.55590969 4.04366163 -7.60039681 3.46347196 -4.9375 2.25 C-4.01839844 1.82203125 -3.09929687 1.3940625 -2.15234375 0.953125 C-1.44207031 0.63859375 -0.73179687 0.3240625 0 0 Z " fill="#FFF0D6" transform="translate(424,6)"/>
<path d="M0 0 C3.96 1.98 7.92 3.96 12 6 C11.09693249 9.61227003 10.0540927 11.98627426 8.27734375 15.203125 C7.73916016 16.1828125 7.20097656 17.1625 6.64648438 18.171875 C6.08251953 19.18765625 5.51855469 20.2034375 4.9375 21.25 C4.36966797 22.28125 3.80183594 23.3125 3.21679688 24.375 C1.81526877 26.91895018 0.4095398 29.46048283 -1 32 C-5.72224516 30.46527032 -10.35855331 28.76054874 -15 27 C-3.52427184 3.52427184 -3.52427184 3.52427184 0 0 Z " fill="#FFF0D6" transform="translate(488,6)"/>
<path d="M0 0 C0.99128906 -0.00257812 1.98257812 -0.00515625 3.00390625 -0.0078125 C5.4375 0.125 5.4375 0.125 6.4375 1.125 C6.52525605 3.27058827 6.54445219 5.41904421 6.53515625 7.56640625 C6.53193359 8.87158203 6.52871094 10.17675781 6.52539062 11.52148438 C6.51703401 12.9101569 6.50856905 14.29882877 6.5 15.6875 C6.49498666 17.08007656 6.49042347 18.47265481 6.48632812 19.86523438 C6.47449442 23.28517451 6.45655831 26.7050925 6.4375 30.125 C1.8175 30.125 -2.8025 30.125 -7.5625 30.125 C-7.5625 20.555 -7.5625 10.985 -7.5625 1.125 C-4.93920316 -0.18664842 -2.92551375 -0.00762846 0 0 Z " fill="#FFF0D6" transform="translate(456.5625,-0.125)"/>
<path d="M0 0 C3.10605182 2.6492795 4.82033521 4.80245545 5.4453125 8.92578125 C5.65093697 13.00399985 5.29625714 15.4568121 3.5 19.1875 C0.32714614 22.69433848 -2.24051527 24.6588993 -7.0859375 24.94140625 C-11.32277454 24.70915439 -13.41467822 24.17488098 -16.8125 21.5 C-19.69302046 17.74659455 -21.27554446 15.23632441 -20.8125 10.4375 C-20.14032228 5.52979281 -18.43397667 3.20200159 -14.875 -0.1875 C-9.88733902 -1.85005366 -4.89131552 -2.02032597 0 0 Z M-11.875 2.8125 C-12.205 3.4725 -12.535 4.1325 -12.875 4.8125 C-9.575 4.8125 -6.275 4.8125 -2.875 4.8125 C-2.895625 6.029375 -2.91625 7.24625 -2.9375 8.5 C-2.94324116 11.73227322 -2.66266315 14.66184741 -1.875 17.8125 C-0.885 17.1525 0.105 16.4925 1.125 15.8125 C1.76194471 10.95579662 1.86006285 8.91509427 -0.875 4.8125 C-4.90479465 2.12597023 -7.11434031 2.40905426 -11.875 2.8125 Z M-15.5 6.3125 C-17.61550625 10.15887499 -16.83447172 12.56341094 -15.875 16.8125 C-14.39 17.8025 -14.39 17.8025 -12.875 18.8125 C-12.875 14.1925 -12.875 9.5725 -12.875 4.8125 C-14.12111205 4.69945332 -14.12111205 4.69945332 -15.5 6.3125 Z M-8.875 7.8125 C-8.875 8.4725 -8.875 9.1325 -8.875 9.8125 C-8.215 9.4825 -7.555 9.1525 -6.875 8.8125 C-7.535 8.4825 -8.195 8.1525 -8.875 7.8125 Z M-8.875 13.8125 C-8.875 15.4625 -8.875 17.1125 -8.875 18.8125 C-10.195 19.1425 -11.515 19.4725 -12.875 19.8125 C-10.11249964 21.19375018 -7.92768901 21.00329306 -4.875 20.8125 C-4.215 20.1525 -3.555 19.4925 -2.875 18.8125 C-3.865 18.8125 -4.855 18.8125 -5.875 18.8125 C-5.875 17.1625 -5.875 15.5125 -5.875 13.8125 C-6.865 13.8125 -7.855 13.8125 -8.875 13.8125 Z " fill="#FFF0D6" transform="translate(938.875,52.1875)"/>
</svg>
